<svg width="22" height="24" viewBox="0 0 22 24" fill="none" xmlns="http://www.w3.org/2000/svg">
<g id="Group">
<g id="Clip path group">
<g id="Group_2">
<path id="Vector" d="M12.6514 22.6289C12.6514 20.3407 14.4067 18.4643 16.572 18.4643H17.2981C19.4633 18.4643 21.2187 20.3407 21.2187 22.6289" stroke="white" stroke-width="1.5" stroke-miterlimit="10" stroke-linecap="round" stroke-linejoin="round"/>
<path id="Vector_2" d="M19.6767 12.3545C19.6767 13.9795 18.43 15.2969 16.8923 15.2969C15.3545 15.2969 14.1079 13.9795 14.1079 12.3545C14.1079 10.7295 15.3545 9.4121 16.8923 9.4121C18.43 9.4121 19.6767 10.7295 19.6767 12.3545Z" stroke="white" stroke-width="1.5" stroke-miterlimit="10" stroke-linecap="round" stroke-linejoin="round"/>
<path id="Vector_3" d="M17.4501 5.78845C17.4501 3.28891 15.5327 1.26265 13.1674 1.26265H5.28279C2.91749 1.26265 1 3.28891 1 5.78845V18.1031C1 20.6026 2.91749 22.6289 5.28279 22.6289H9.2246" stroke="white" stroke-width="1.5" stroke-miterlimit="10" stroke-linecap="round" stroke-linejoin="round"/>
<path id="Vector_4" d="M5.49767 6.44531C5.63643 6.44531 5.81858 6.31397 5.81858 6.06363C5.81858 5.81329 5.63643 5.68194 5.49767 5.68194C5.35891 5.68194 5.17676 5.81329 5.17676 6.06363C5.17676 6.31397 5.35891 6.44531 5.49767 6.44531Z" fill="white" stroke="white" stroke-width="1.5"/>
<path id="Vector_5" d="M9.18175 6.44531C9.32051 6.44531 9.50266 6.31397 9.50266 6.06363C9.50266 5.81329 9.32051 5.68194 9.18175 5.68194C9.04299 5.68194 8.86084 5.81329 8.86084 6.06363C8.86084 6.31397 9.04299 6.44531 9.18175 6.44531Z" fill="white" stroke="white" stroke-width="1.5"/>
<path id="Vector_6" d="M12.8658 6.44531C13.0046 6.44531 13.1867 6.31397 13.1867 6.06363C13.1867 5.81329 13.0046 5.68194 12.8658 5.68194C12.7271 5.68194 12.5449 5.81329 12.5449 6.06363C12.5449 6.31397 12.7271 6.44531 12.8658 6.44531Z" fill="white" stroke="white" stroke-width="1.5"/>
<path id="Vector_7" d="M5.49767 10.3359C5.63643 10.3359 5.81858 10.2046 5.81858 9.95425C5.81858 9.70391 5.63643 9.57256 5.49767 9.57256C5.35891 9.57256 5.17676 9.70391 5.17676 9.95425C5.17676 10.2046 5.35891 10.3359 5.49767 10.3359Z" fill="white" stroke="white" stroke-width="1.5"/>
<path id="Vector_8" d="M5.49767 14.2266C5.63643 14.2266 5.81858 14.0952 5.81858 13.8449C5.81858 13.5945 5.63643 13.4632 5.49767 13.4632C5.35891 13.4632 5.17676 13.5945 5.17676 13.8449C5.17676 14.0952 5.35891 14.2266 5.49767 14.2266Z" fill="white" stroke="white" stroke-width="1.5"/>
<path id="Vector_9" d="M5.49767 18.125C5.63643 18.125 5.81858 17.9937 5.81858 17.7433C5.81858 17.493 5.63643 17.3616 5.49767 17.3616C5.35891 17.3616 5.17676 17.493 5.17676 17.7433C5.17676 17.9937 5.35891 18.125 5.49767 18.125Z" fill="white" stroke="white" stroke-width="1.5"/>
<path id="Vector_10" d="M9.18175 10.3359C9.32051 10.3359 9.50266 10.2046 9.50266 9.95425C9.50266 9.70391 9.32051 9.57256 9.18175 9.57256C9.04299 9.57256 8.86084 9.70391 8.86084 9.95425C8.86084 10.2046 9.04299 10.3359 9.18175 10.3359Z" fill="white" stroke="white" stroke-width="1.5"/>
<path id="Vector_11" d="M9.18175 14.2266C9.32051 14.2266 9.50266 14.0952 9.50266 13.8449C9.50266 13.5945 9.32051 13.4632 9.18175 13.4632C9.04299 13.4632 8.86084 13.5945 8.86084 13.8449C8.86084 14.0952 9.04299 14.2266 9.18175 14.2266Z" fill="white" stroke="white" stroke-width="1.5"/>
<path id="Vector_12" d="M9.18175 18.125C9.32051 18.125 9.50266 17.9937 9.50266 17.7433C9.50266 17.493 9.32051 17.3616 9.18175 17.3616C9.04299 17.3616 8.86084 17.493 8.86084 17.7433C8.86084 17.9937 9.04299 18.125 9.18175 18.125Z" fill="white" stroke="white" stroke-width="1.5"/>
</g>
</g>
</g>
</svg>
